<svg width="369" height="337" viewBox="0 0 369 337" fill="none" xmlns="http://www.w3.org/2000/svg">
<path d="M73.388 109.194C73.388 109.194 58.5889 115.549 57.5475 129.206C56.5061 142.863 94.8037 180.759 94.8037 180.759L197.248 122.074L158.469 69.0039L73.388 109.194Z" fill="#C7DCF9"/>
<path d="M98.3227 120.335C98.3227 120.335 87.9875 131.591 85.5791 143.584C83.1706 155.577 84.607 176.702 85.8883 184.577C104.008 198.078 169.495 182.651 169.495 182.651L227.436 109.85C227.436 109.85 214.866 91.3808 208.881 86.4469C202.895 81.513 184.424 75.9405 164.463 84.6484C153.76 101.112 98.3227 120.335 98.3227 120.335Z" fill="#E1ECFF"/>
<g style="mix-blend-mode:multiply">
<path d="M93.9252 126.854C93.9252 126.854 119.565 132.982 146.792 121.511C174.019 110.04 176.599 81.5184 176.599 81.5184L164.819 85.1633L98.4851 121.043L93.9252 126.854Z" fill="#E1ECFF"/>
</g>
<path d="M202.892 204.928C202.892 204.928 234.349 203.512 243.369 205.141C252.389 206.769 280.122 254.334 290.213 258.509C300.305 262.684 307.832 254.511 317.978 248.209C328.124 241.908 337.273 234.443 337.319 231.52C337.365 228.597 331.801 217.209 327.676 215.064C323.551 212.919 312.166 213.333 306.42 217.221C295.514 195.308 279.934 163.335 267.916 159.438C255.898 155.54 220.5 155.198 220.5 155.198L202.892 204.928Z" fill="#E1ECFF"/>
<g style="mix-blend-mode:multiply" opacity="0.51">
<path d="M233.263 181.589C233.263 181.589 258.927 182.968 266.79 191.438C274.653 199.908 293.717 253.119 309.413 253.653C311.331 271.092 279.678 278.929 279.678 278.929L194.717 202.644L233.263 181.589Z" fill="#E1ECFF"/>
</g>
<path d="M116.575 205.018C116.575 205.018 139.228 241.371 157.661 250.662C176.094 259.952 207.772 257.509 217.125 263.732C226.478 269.955 227.485 302.088 236.995 310.129C246.506 318.169 259.286 322.741 270.713 321.198C282.141 319.654 290.898 314.097 290.589 309.317C290.28 304.538 289.448 300.422 283.811 298.152C278.174 295.882 270.363 294.15 269.771 291.199C269.178 288.247 259.026 243.368 255.391 231.215C251.757 219.061 230.515 202.981 204.336 195.67C178.617 178.333 142.368 188.17 142.368 188.17L116.575 205.018Z" fill="#E1ECFF"/>
<g style="mix-blend-mode:multiply">
<path d="M123.173 216.096C123.173 216.096 145.506 216.008 164.758 206.9C159.27 188.359 147.001 183.426 147.001 183.426L116.641 206.359L123.173 216.096Z" fill="#E1ECFF"/>
</g>
<path d="M138.27 21.2862C120.147 13.6095 83.509 12.5761 63.341 39.3816C43.173 66.1871 56.7397 92.2286 67.2814 104.137C78.3224 116.635 114.059 134.775 148.645 114.263C183.23 93.7521 182.245 39.9201 138.27 21.2862Z" fill="#E1ECFF"/>
<path d="M136.688 37.0145C152.408 39.6213 164.2 59.0419 160.725 78.389C157.249 97.736 140.556 111.477 120.544 112.601C100.533 113.725 79.5014 102.145 77.5082 78.5878C75.597 55.9491 102.551 31.3565 136.688 37.0145Z" fill="#1C3177"/>
<g style="mix-blend-mode:multiply">
<path d="M104.056 187.26C123.464 177.59 106.612 158.636 126.328 153.123C153.159 155.248 160.383 153.625 160.383 153.625C160.383 153.625 113.308 197.322 104.056 187.26Z" fill="#E1ECFF"/>
</g>
<path d="M117.653 133.644L158.05 211.049L205.13 207.606L246.039 180.221L255.688 143.586L216.773 58.8324L205.223 100.028L168.536 130.812L117.653 133.644Z" fill="#FF97C9"/>
<path d="M103.844 187.128C114.872 185.733 119.932 178.785 123.033 175.658C124.612 174.062 124.153 172.757 122.901 168.45C121.649 164.142 124.246 159.526 128.17 157.407C130.916 162.866 133.772 163.782 135.881 163.412C137.99 163.043 139.134 151.194 146.115 150.942C153.097 150.69 159.447 158.905 160.756 163.102C162.066 167.298 158.643 179.633 153.751 188.418C148.859 197.202 141.827 208.127 124.176 212.332C106.526 216.538 95.571 208.616 88.7396 198.244C86.4346 194.743 85.2753 189.802 84.8436 184.254C84.8436 184.254 89.2965 188.936 103.844 187.128Z" fill="#E1ECFF"/>
<path d="M231.502 87.7692C231.502 87.7692 234.181 94.0224 232.977 96.574C231.773 99.1256 230.015 101.275 228.873 104.523C227.731 107.77 230.903 119.627 237.356 121.361C243.808 123.094 248.519 117.451 249.897 114.254C251.276 111.056 249.634 102.93 246.676 97.3573C243.718 91.7844 238.658 86.9561 231.502 87.7692Z" fill="#E1ECFF"/>
<path d="M232.98 8.93587L234.636 11.5122C234.736 11.6684 234.874 11.8009 235.04 11.8982C235.206 11.9955 235.394 12.0547 235.589 12.0706L238.801 12.3226C239.026 12.3406 239.242 12.416 239.426 12.5403C239.609 12.6646 239.753 12.8328 239.839 13.0258C239.926 13.2188 239.953 13.4289 239.917 13.6322C239.88 13.8355 239.783 14.0238 239.635 14.1759L237.524 16.3622C237.395 16.494 237.305 16.6534 237.26 16.8267C237.214 16.9999 237.216 17.1818 237.265 17.3566L238.062 20.2261C238.119 20.4274 238.113 20.6375 238.046 20.8329C237.979 21.0283 237.853 21.2011 237.683 21.3317C237.513 21.4624 237.306 21.5457 237.084 21.5722C236.862 21.5987 236.635 21.5674 236.428 21.4819L233.462 20.2528C233.283 20.1779 233.088 20.1439 232.894 20.1538C232.7 20.1637 232.512 20.2172 232.348 20.3096L229.627 21.8286C229.437 21.9356 229.217 21.9906 228.992 21.9874C228.767 21.9842 228.546 21.923 228.353 21.8107C228.161 21.6983 228.005 21.5394 227.904 21.352C227.802 21.1645 227.76 20.9561 227.78 20.7504L228.065 17.8257C228.082 17.6475 228.052 17.4671 227.977 17.3C227.901 17.1328 227.783 16.9841 227.632 16.8666L225.152 14.9143C224.978 14.7787 224.848 14.602 224.776 14.4042C224.704 14.2064 224.693 13.9955 224.745 13.7954C224.797 13.5953 224.909 13.4141 225.069 13.2723C225.228 13.1305 225.429 13.0338 225.649 12.9932L228.788 12.4174C228.977 12.3819 229.153 12.3041 229.3 12.1909C229.448 12.0776 229.561 11.9322 229.632 11.7674L230.815 9.04627C230.897 8.85415 231.037 8.68859 231.219 8.56849C231.4 8.44839 231.616 8.3786 231.842 8.36709C232.068 8.35558 232.295 8.4028 232.496 8.50338C232.697 8.60395 232.865 8.75383 232.98 8.93587V8.93587Z" fill="#FEC272"/>
<path d="M99.7984 295.272L101.187 297.434C101.27 297.565 101.386 297.676 101.526 297.758C101.665 297.839 101.824 297.888 101.987 297.9L104.682 298.12C104.87 298.136 105.051 298.199 105.204 298.304C105.358 298.408 105.477 298.549 105.55 298.71C105.623 298.872 105.645 299.047 105.615 299.217C105.585 299.388 105.504 299.545 105.38 299.673L103.607 301.501C103.499 301.612 103.422 301.748 103.385 301.895C103.347 302.042 103.351 302.196 103.394 302.343L104.061 304.762C104.107 304.931 104.101 305.107 104.045 305.271C103.988 305.434 103.883 305.579 103.74 305.688C103.598 305.798 103.424 305.868 103.238 305.891C103.053 305.913 102.862 305.888 102.689 305.817L100.205 304.784C100.054 304.722 99.8909 304.694 99.7282 304.703C99.5656 304.711 99.4085 304.755 99.2705 304.832L97.001 306.099C96.8417 306.188 96.6572 306.234 96.4684 306.231C96.2796 306.228 96.0941 306.176 95.9329 306.082C95.7718 305.988 95.6414 305.854 95.5567 305.697C95.472 305.54 95.4363 305.365 95.4537 305.193L95.685 302.728C95.6995 302.577 95.6737 302.424 95.61 302.283C95.5463 302.141 95.4465 302.015 95.3192 301.915L93.2424 300.283C93.0973 300.17 92.9886 300.021 92.9286 299.856C92.8687 299.69 92.8599 299.514 92.9031 299.347C92.9464 299.179 93.0401 299.027 93.1735 298.909C93.307 298.79 93.4749 298.709 93.6583 298.674L96.2858 298.183C96.4455 298.154 96.5941 298.089 96.7185 297.994C96.843 297.899 96.9396 297.777 96.9999 297.639L97.992 295.356C98.0619 295.197 98.1796 295.06 98.3315 294.961C98.4835 294.862 98.6637 294.805 98.8518 294.796C99.0398 294.787 99.2282 294.827 99.3955 294.911C99.5628 294.996 99.7024 295.121 99.7984 295.272V295.272Z" fill="#FEC272"/>
<g style="mix-blend-mode:soft-light" opacity="0.48">
<path d="M125.74 61.6967C136.719 58.8717 144.649 53.6799 143.452 50.1004C142.255 46.521 132.385 45.9094 121.406 48.7343C110.427 51.5593 102.498 56.7511 103.694 60.3306C104.891 63.91 114.761 64.5216 125.74 61.6967Z" fill="white"/>
</g>
<g style="mix-blend-mode:multiply">
<path d="M159.594 174.947C159.594 174.947 145.963 165.137 143.662 165.254C141.361 165.371 135.972 173.951 137.549 176.071C139.125 178.192 146.861 185.006 154.849 186.816C156.978 182.247 159.594 174.947 159.594 174.947Z" fill="#E1ECFF"/>
</g>
<g style="mix-blend-mode:multiply" opacity="0.5">
<path d="M168.745 130.476L205.155 207.082L245.859 179.764L205.248 99.7675L168.745 130.476Z" fill="#FF97C9"/>
</g>
<g style="mix-blend-mode:multiply">
<path d="M259.611 245.501C255.503 249.106 250.791 252.079 245.646 254.31C240.817 256.344 239.455 260.069 241.556 266.67C243.657 273.271 245.427 283.639 248.784 286.222C252.142 288.804 262.724 286.798 267.71 280.141C264.855 267.673 259.611 245.501 259.611 245.501Z" fill="#E1ECFF"/>
</g>
<g style="mix-blend-mode:multiply">
<path d="M284.572 175.974C284.572 175.974 278.57 178.804 279.517 182.779C280.464 186.754 288.542 205.789 291.205 207.406C293.868 209.023 301.015 205.547 301.015 205.547C291.618 185.947 284.572 175.974 284.572 175.974Z" fill="#E1ECFF"/>
</g>
<path d="M19.5334 238.141C13.6647 228.814 29.0898 217.724 43.0583 217.754C57.0267 217.784 63.9246 229.316 69.2422 233.478C80.3484 242.164 80.8275 251.191 74.0506 255.428C67.2736 259.665 27.2997 250.48 19.5334 238.141Z" fill="#99ADF9"/>
<path d="M291.983 75.0366C287.639 71.9734 290.438 56.3909 299.69 52.305C308.942 48.2192 321.18 51.5467 324.27 57.5834C327.359 63.6201 300.888 81.3102 291.983 75.0366Z" fill="#99ADF9"/>
<path d="M339.651 80.209C337.837 83.021 337.154 90.7996 341.613 91.9497C346.073 93.0998 348.648 85.0009 346.757 80.9507C344.865 76.9004 340.863 78.3301 339.651 80.209Z" fill="#99ADF9"/>
<path opacity="0.44" d="M338.103 17.9327C334.972 19.5124 330.145 25.8626 333.48 28.9023C336.815 31.942 343.479 26.1791 343.997 21.8384C344.516 17.4976 340.194 16.8793 338.103 17.9327Z" fill="#99ADF9"/>
<path opacity="0.44" d="M45.3854 276.773C42.3678 274.838 33.8804 273.495 32.4561 277.542C31.0317 281.588 39.807 284.688 44.2965 283.314C48.786 281.94 47.3943 278.066 45.3854 276.773Z" fill="#99ADF9"/>
<g style="mix-blend-mode:multiply" opacity="0.64">
<path d="M66.7683 230.775C61.8348 231.899 63.0106 235.987 64.9504 239.647C66.8901 243.306 72.6377 244.085 76.3209 240.462C73.2262 234.918 66.7683 230.775 66.7683 230.775Z" fill="#99ADF9"/>
</g>
<g style="mix-blend-mode:multiply" opacity="0.64">
<path d="M37.056 226.384C33.5062 226.934 31.0127 231.864 33.884 235.613C36.7552 239.361 41.821 241.94 44.4808 240.742C47.1406 239.545 47.0925 233.806 44.7774 230.241C42.4622 226.676 40.468 225.853 37.056 226.384Z" fill="#99ADF9"/>
</g>
<g style="mix-blend-mode:multiply" opacity="0.64">
<path d="M312.877 54.9717C310.961 55.6504 309.142 57.7142 309.506 59.8243C309.869 61.9345 312.042 63.6826 314.197 63.3195C316.352 62.9565 317.918 59.6192 317.263 57.3124C316.607 55.0055 314.339 54.4573 312.877 54.9717Z" fill="#99ADF9"/>
</g>
<g style="mix-blend-mode:multiply" opacity="0.64">
<path d="M292.019 60.3626C292.019 60.3626 294.911 62.697 294.715 65.5246C294.519 68.3521 289.891 68.3284 289.891 68.3284C289.891 68.3284 290.152 63.5115 292.019 60.3626Z" fill="#99ADF9"/>
</g>
</svg>
